<?xml version="1.0" standalone="no"?>
<!DOCTYPE svg PUBLIC "-//W3C//DTD SVG 20010904//EN"
 "http://www.w3.org/TR/2001/REC-SVG-20010904/DTD/svg10.dtd">
<svg version="1.0" xmlns="http://www.w3.org/2000/svg"
 width="700.000000pt" height="700.000000pt" viewBox="0 0 700.000000 700.000000"
 preserveAspectRatio="xMidYMid meet">
<metadata>
Created by potrace 1.14, written by Peter Selinger 2001-2017
</metadata>
<g transform="translate(0.000000,700.000000) scale(0.100000,-0.100000)"
fill="#000000" stroke="none">
<path d="M2425 5589 c-604 -61 -1137 -482 -1335 -1053 -66 -190 -89 -334 -87
-555 0 -74 4 -155 8 -180 4 -25 10 -67 13 -93 4 -27 18 -90 31 -142 102 -394
358 -749 702 -973 82 -54 255 -144 303 -158 14 -4 30 -11 36 -16 6 -5 19 -10
30 -12 10 -2 26 -7 34 -10 26 -9 173 -45 210 -51 19 -3 46 -8 60 -12 14 -3
122 -7 240 -9 234 -4 289 3 413 51 75 29 188 100 257 162 25 22 46 40 47 39 1
-2 10 -53 19 -117 3 -19 7 -41 9 -47 3 -10 116 -13 518 -13 l513 0 -1 107 c-1
149 -3 144 53 126 52 -15 109 -29 162 -38 324 -56 413 -107 412 -236 -1 -49
-24 -96 -62 -126 -65 -53 -220 -71 -324 -38 -73 23 -173 90 -211 141 -30 40
-31 41 -90 39 -33 -1 -73 -7 -89 -14 -116 -48 -613 -257 -663 -279 l-63 -26
31 -56 c118 -210 337 -388 599 -485 41 -15 84 -31 95 -35 27 -11 147 -39 215
-51 179 -31 453 -33 590 -4 14 3 37 7 52 10 69 13 201 62 290 107 166 84 281
179 381 313 56 75 135 215 121 215 -4 0 -2 6 4 12 26 34 46 156 46 293 1 147
-3 182 -30 262 -77 229 -274 426 -594 591 -186 96 -350 155 -515 187 -94 17
-206 55 -242 80 -76 53 -61 212 26 275 34 24 130 50 183 50 90 0 219 -65 316
-159 49 -47 55 -50 97 -48 25 1 46 -1 47 -5 2 -4 146 78 322 182 175 105 322
190 327 190 5 0 9 3 9 8 0 4 14 13 30 20 l30 14 -32 44 c-69 96 -188 206 -308
286 -158 104 -347 178 -545 214 -105 19 -409 27 -505 13 -110 -15 -126 -18
-142 -24 -10 -4 -17 0 -19 12 -3 10 -4 226 -4 481 l1 462 -514 0 -514 0 6 -37
c3 -21 8 -56 11 -78 3 -22 8 -48 11 -57 9 -29 -7 -22 -110 47 -172 115 -343
183 -514 204 -91 11 -284 11 -397 0z m386 -914 c122 -32 221 -89 313 -181 198
-199 269 -494 185 -771 -72 -238 -265 -427 -495 -487 -121 -31 -228 -16 -369
53 -175 86 -315 264 -371 472 -21 81 -26 252 -9 344 67 371 433 651 746 570z"/>
</g>
</svg>
