<svg width="1920" height="1080" viewBox="0 0 1920 1080" fill="none" xmlns="http://www.w3.org/2000/svg">
<rect width="1920" height="1080" fill="#020709"/>
<g filter="url(#filter0_f_1_2)">
<path d="M689.93 428.62C680.407 422.608 671.616 412.617 662.236 406.33C686.178 404.543 711.462 401.329 734.426 410.135C743.902 413.769 756.016 413.846 766.008 415.811C776.133 417.802 784.435 424.806 794.355 427.794C820.339 435.62 848.65 443.388 873.704 453.737C923.91 474.474 987.723 467.227 1039.88 460.734C1073.68 456.525 1107.36 453.837 1141.22 448.093C1162.92 444.412 1183.5 436.664 1204.84 431.487C1226.6 426.209 1249.61 420.31 1272.08 420.105C1276.58 420.063 1319.24 422.565 1320.98 425.804C1322.88 429.336 1288.17 442.879 1286.95 446.912C1284.98 453.44 1271.17 460.27 1266 464.285C1258.44 470.153 1247.28 472.171 1238.97 477.118C1230 482.456 1220.28 487.74 1210.92 492.332C1196.95 499.181 1182.36 505.791 1168.39 512.304C1151.16 520.329 1136.67 533.273 1120.45 542.64C1111.85 547.613 1109.1 551.138 1104.46 557.259C1098.98 564.49 1105.27 586.382 1106.4 594.575C1108.21 607.678 1108.89 620.928 1110.69 633.979C1114.55 661.966 1109.78 689.848 1112.88 717.636C1115.42 740.497 1116.04 763.214 1118.62 786.353C1120.47 802.959 1119.24 796.486 1109.13 789.56C1091.73 777.638 1081.33 758.657 1068.23 742.553C1050.6 720.889 1035.69 697.602 1017.68 676.054C994.876 648.781 970.989 624.304 944.12 601.04C922.684 582.48 899.6 560.754 876.081 545.056C863.071 536.372 848.384 526.881 837.613 515.437C821.492 498.31 796.016 488.275 776.894 475.027C762.281 464.903 744.422 457.435 728.882 448.483C716.247 441.205 702.286 436.42 689.93 428.62Z" fill="url(#paint0_linear_1_2)"/>
</g>
<g filter="url(#filter1_f_1_2)">
<path d="M858.068 483.753C853.141 480.69 848.603 475.581 843.751 472.377C856.183 471.396 869.316 469.68 881.213 474.143C886.122 475.985 892.41 475.993 897.591 476.976C902.842 477.972 907.133 481.549 912.274 483.057C925.741 487.009 940.416 490.926 953.394 496.176C979.4 506.697 1012.54 502.808 1039.63 499.338C1057.19 497.088 1074.68 495.62 1092.27 492.581C1103.54 490.634 1114.24 486.601 1125.34 483.886C1136.65 481.119 1148.6 478.029 1160.27 477.865C1162.6 477.832 1184.74 479.006 1185.63 480.665C1186.61 482.474 1168.56 489.521 1167.92 491.595C1166.88 494.953 1159.69 498.497 1156.99 500.573C1153.06 503.607 1147.26 504.672 1142.93 507.235C1138.26 510 1133.2 512.74 1128.33 515.123C1121.06 518.677 1113.47 522.11 1106.2 525.491C1097.24 529.658 1089.68 536.345 1081.24 541.198C1076.76 543.775 1075.33 545.592 1072.91 548.749C1070.04 552.477 1073.25 563.705 1073.81 567.91C1074.72 574.636 1075.04 581.44 1075.94 588.138C1077.87 602.503 1075.32 616.837 1076.85 631.102C1078.12 642.838 1078.38 654.504 1079.66 666.383C1080.57 674.908 1079.95 671.586 1074.72 668.054C1065.72 661.976 1060.38 652.254 1053.62 644.017C1044.52 632.935 1036.84 621.013 1027.55 609.992C1015.78 596.043 1003.45 583.533 989.561 571.653C978.483 562.176 966.557 551.076 954.39 543.075C947.66 538.648 940.061 533.811 934.499 527.961C926.176 519.206 912.979 514.118 903.088 507.363C895.529 502.201 886.278 498.412 878.235 493.854C871.696 490.149 864.461 487.728 858.068 483.753Z" fill="url(#paint1_linear_1_2)"/>
</g>
<defs>
<filter id="filter0_f_1_2" x="515.945" y="263.463" width="945.112" height="673.36" filterUnits="userSpaceOnUse" color-interpolation-filters="sRGB">
<feFlood flood-opacity="0" result="BackgroundImageFix"/>
<feBlend mode="normal" in="SourceGraphic" in2="BackgroundImageFix" result="shape"/>
<feGaussianBlur stdDeviation="70" result="effect1_foregroundBlur_1_2"/>
</filter>
<filter id="filter1_f_1_2" x="770.484" y="400.916" width="485.188" height="340.844" filterUnits="userSpaceOnUse" color-interpolation-filters="sRGB">
<feFlood flood-opacity="0" result="BackgroundImageFix"/>
<feBlend mode="normal" in="SourceGraphic" in2="BackgroundImageFix" result="shape"/>
<feGaussianBlur stdDeviation="35" result="effect1_foregroundBlur_1_2"/>
</filter>
<linearGradient id="paint0_linear_1_2" x1="1003.6" y1="266.853" x2="1111.96" y2="536.567" gradientUnits="userSpaceOnUse">
<stop stop-color="#A2FF08"/>
<stop offset="1" stop-color="#2C7DAA"/>
</linearGradient>
<linearGradient id="paint1_linear_1_2" x1="1021.31" y1="399.848" x2="1076.85" y2="538.101" gradientUnits="userSpaceOnUse">
<stop stop-color="#A2FF08"/>
<stop offset="1" stop-color="#2C7DAA"/>
</linearGradient>
</defs>
</svg>
